REM DIRINDEX 1\2\6,1\2\7,1\2\8,1\2\9,1\3\10,1\3\11,1\4\12,1\4\13,1\4\14,1\5\15,1\5\16,1\5\17
REM DIRNAME folder01,folder02,folder03,folder04,folder05,folder06,folder07,folder08,folder09,folder10,folder11,folder12,folder13,folder14,folder15,folder16,folder17
TITLE ""
FILE "1900_2_sec14_1301_1316.mp3" MP3
  TRACK 01 AUDIO
    TITLE "0:"
    INDEX 01 00:00:00
  TRACK 02 AUDIO
    TITLE "12:cjc020_4740"
    INDEX 01 00:03:21
  TRACK 03 AUDIO
    TITLE "0:"
    INDEX 01 00:05:28
  TRACK 04 AUDIO
    TITLE "12:cjc020_4741"
    INDEX 01 00:05:71
  TRACK 05 AUDIO
    TITLE "0:"
    INDEX 01 00:07:19
  TRACK 06 AUDIO
    TITLE "13:cjc020_4742"
    INDEX 01 00:08:19
  TRACK 07 AUDIO
    TITLE "0:"
    INDEX 01 00:09:47
  TRACK 08 AUDIO
    TITLE "14:cjc020_4743"
    INDEX 01 00:09:49
  TRACK 09 AUDIO
    TITLE "0:"
    INDEX 01 00:12:22
  TRACK 10 AUDIO
    TITLE "13:cjc020_4744"
    INDEX 01 00:13:04
  TRACK 11 AUDIO
    TITLE "0:"
    INDEX 01 00:14:41
  TRACK 12 AUDIO
    TITLE "14:cjc020_4745"
    INDEX 01 00:14:43
  TRACK 13 AUDIO
    TITLE "0:"
    INDEX 01 00:18:46
  TRACK 14 AUDIO
    TITLE "13:cjc020_4746"
    INDEX 01 00:19:30
  TRACK 15 AUDIO
    TITLE "0:"
    INDEX 01 00:20:49
  TRACK 16 AUDIO
    TITLE "14:cjc020_4747"
    INDEX 01 00:20:55
  TRACK 17 AUDIO
    TITLE "0:"
    INDEX 01 00:21:74
  TRACK 18 AUDIO
    TITLE "13:cjc020_4748"
    INDEX 01 00:22:50
  TRACK 19 AUDIO
    TITLE "0:"
    INDEX 01 00:23:67
  TRACK 20 AUDIO
    TITLE "14:cjc020_4749"
    INDEX 01 00:23:69
  TRACK 21 AUDIO
    TITLE "0:"
    INDEX 01 00:26:58
  TRACK 22 AUDIO
    TITLE "13:cjc020_4750"
    INDEX 01 00:27:38
  TRACK 23 AUDIO
    TITLE "0:"
    INDEX 01 00:28:49
  TRACK 24 AUDIO
    TITLE "14:cjc020_4751"
    INDEX 01 00:28:51
  TRACK 25 AUDIO
    TITLE "0:"
    INDEX 01 00:30:01
  TRACK 26 AUDIO
    TITLE "13:cjc020_4752"
    INDEX 01 00:30:57
  TRACK 27 AUDIO
    TITLE "0:"
    INDEX 01 00:31:67
  TRACK 28 AUDIO
    TITLE "14:cjc020_4753"
    INDEX 01 00:31:69
  TRACK 29 AUDIO
    TITLE "0:"
    INDEX 01 00:34:04
  TRACK 30 AUDIO
    TITLE "13:cjc020_4754"
    INDEX 01 00:34:63
  TRACK 31 AUDIO
    TITLE "0:"
    INDEX 01 00:35:70
  TRACK 32 AUDIO
    TITLE "14:cjc020_4755"
    INDEX 01 00:36:01
  TRACK 33 AUDIO
    TITLE "0:"
    INDEX 01 00:38:59
  TRACK 34 AUDIO
    TITLE "13:cjc020_4756"
    INDEX 01 00:39:37
  TRACK 35 AUDIO
    TITLE "0:"
    INDEX 01 00:40:34
  TRACK 36 AUDIO
    TITLE "14:cjc020_4757"
    INDEX 01 00:40:40
  TRACK 37 AUDIO
    TITLE "0:"
    INDEX 01 00:42:70
  TRACK 38 AUDIO
    TITLE "13:cjc020_4758"
    INDEX 01 00:43:52
  TRACK 39 AUDIO
    TITLE "0:"
    INDEX 01 00:44:65
  TRACK 40 AUDIO
    TITLE "14:cjc020_4759"
    INDEX 01 00:44:69
  TRACK 41 AUDIO
    TITLE "0:"
    INDEX 01 00:45:73
  TRACK 42 AUDIO
    TITLE "13:cjc020_4760"
    INDEX 01 00:46:54
  TRACK 43 AUDIO
    TITLE "0:"
    INDEX 01 00:47:46
  TRACK 44 AUDIO
    TITLE "14:cjc020_4761"
    INDEX 01 00:47:62
  TRACK 45 AUDIO
    TITLE "0:"
    INDEX 01 00:50:19
  TRACK 46 AUDIO
    TITLE "13:cjc020_4762"
    INDEX 01 00:50:74
  TRACK 47 AUDIO
    TITLE "0:"
    INDEX 01 00:52:16
  TRACK 48 AUDIO
    TITLE "14:cjc020_4763"
    INDEX 01 00:52:18
  TRACK 49 AUDIO
    TITLE "0:"
    INDEX 01 00:54:30
  TRACK 50 AUDIO
    TITLE "13:cjc020_4764"
    INDEX 01 00:55:10
  TRACK 51 AUDIO
    TITLE "0:"
    INDEX 01 00:56:10
  TRACK 52 AUDIO
    TITLE "14:cjc020_4765"
    INDEX 01 00:56:14
  TRACK 53 AUDIO
    TITLE "0:"
    INDEX 01 01:01:56
  TRACK 54 AUDIO
    TITLE "13:cjc020_4766"
    INDEX 01 01:02:34
  TRACK 55 AUDIO
    TITLE "0:"
    INDEX 01 01:03:31
  TRACK 56 AUDIO
    TITLE "14:cjc020_4767"
    INDEX 01 01:03:43
  TRACK 57 AUDIO
    TITLE "0:"
    INDEX 01 01:08:05
  TRACK 58 AUDIO
    TITLE "13:cjc020_4768"
    INDEX 01 01:08:58
  TRACK 59 AUDIO
    TITLE "0:"
    INDEX 01 01:10:04
  TRACK 60 AUDIO
    TITLE "14:cjc020_4769"
    INDEX 01 01:10:10
  TRACK 61 AUDIO
    TITLE "0:"
    INDEX 01 01:12:19
  TRACK 62 AUDIO
    TITLE "13:cjc020_4770"
    INDEX 01 01:13:02
  TRACK 63 AUDIO
    TITLE "0:"
    INDEX 01 01:14:23
  TRACK 64 AUDIO
    TITLE "14:cjc020_4771"
    INDEX 01 01:14:27
  TRACK 65 AUDIO
    TITLE "0:"
    INDEX 01 01:17:22
  TRACK 66 AUDIO
    TITLE "13:cjc020_4772"
    INDEX 01 01:18:06
  TRACK 67 AUDIO
    TITLE "0:"
    INDEX 01 01:19:34
  TRACK 68 AUDIO
    TITLE "14:cjc020_4773"
    INDEX 01 01:19:42
  TRACK 69 AUDIO
    TITLE "0:"
    INDEX 01 01:22:05
